# xmcd
# Track frame offsets:
# 150
# 10950
# 34635
# 47470
# 59445
# 75512
# 86317
# 98090
# 113987
# 131167
# 152175
# 170022
# 186070
# 202185
# 214640
#
# Disc length: 3065 seconds
# Revision: 2
# Processed by: cddbd v1.4PL0 Copyright (c) Steve Scherf et al.
# Submitted via: VisiTrax 2.9.5.181 - For more info visit www.synapsa.com
#
DISCID=c40bf70f
DTITLE=The Nitty Gritty Dirt Band - The Best Of The Nitty Gritty Dirt Band
DYEAR=1900
DGENRE=
TTITLE0=Buy For Me The Rain
TTITLE1=Mr. Bojangles
TTITLE2=Some Of Shelly's Blues
TTITLE3=House At Pooh Corner
TTITLE4=Cosmic Cowboy
TTITLE5=Honky Tonk Blues
TTITLE6=Collegiana
TTITLE7=An American Dream
TTITLE8=(All I Have To Do Is) Dream
TTITLE9=Fire In The Sky
TTITLE10=Make A Little Magic
TTITLE11=In For The Night
TTITLE12=Bayou Jubilee/Sally Was A Goodun
TTITLE13=Battle Of New Orleans
TTITLE14=Jambalaya
EXTD=
EXTT0=
EXTT1=
EXTT2=
EXTT3=
EXTT4=
EXTT5=
EXTT6=
EXTT7=
EXTT8=
EXTT9=
EXTT10=
EXTT11=
EXTT12=
EXTT13=
EXTT14=
PLAYORDER=
